<svg xmlns="http://www.w3.org/2000/svg" version="1.1" xmlns:xlink="http://www.w3.org/1999/xlink" xmlns:svgjs="http://svgjs.dev/svgjs" width="1000" height="1000" viewBox="0 0 1000 1000"><rect width="1000" height="1000" fill="#ffffff"></rect><g transform="matrix(0.7,0,0,0.7,149.57575757575756,282.1265587044535)"><svg viewBox="0 0 396 247" data-background-color="#ffffff" preserveAspectRatio="xMidYMid meet" height="623" width="1000" xmlns="http://www.w3.org/2000/svg" xmlns:xlink="http://www.w3.org/1999/xlink"><g id="tight-bounds" transform="matrix(1,0,0,1,0.2400000000000091,-0.09999999999999432)"><svg viewBox="0 0 395.52 247.2" height="247.2" width="395.52"><g><svg></svg></g><g><svg viewBox="0 0 395.52 247.2" height="247.2" width="395.52"><g transform="matrix(1,0,0,1,124.03493644701085,47.215199999999996)"><svg viewBox="0 0 147.45012710597828 152.7696" height="152.7696" width="147.45012710597828"><g><svg viewBox="0 0 147.45012710597828 152.7696" height="152.7696" width="147.45012710597828"><g><svg viewBox="0 0 212.39328845252723 220.05567819047099" height="152.7696" width="147.45012710597828"><g><svg viewBox="0 0 212.39328845252723 220.05567819047099" height="220.05567819047099" width="212.39328845252723"><g id="textblocktransform"><svg viewBox="0 0 212.39328845252723 220.05567819047099" height="220.05567819047099" width="212.39328845252723" id="textblock"><g><svg viewBox="0 0 212.39328845252723 151.825483872" height="151.825483872" width="212.39328845252723"><g transform="matrix(1,0,0,1,0,0)"><svg width="212.39328845252723" viewBox="2.35 -35 49.80191786891999 35.6" height="151.825483872" data-palette-color="#4a596d"><path d="M25.95 0L2.35 0 2.35-4.9 18.45-29.65 2.5-29.65 2.5-35 25.85-35 25.85-30.1 9.65-5.35 25.95-5.35 25.95 0ZM41.8 0.6L41.8 0.6Q38.5 0.6 36-0.48 33.5-1.55 32-3.45 30.5-5.35 30.2-7.85L30.2-7.85 36.65-7.85Q36.95-6.4 38.27-5.38 39.6-4.35 41.7-4.35L41.7-4.35Q43.8-4.35 44.77-5.2 45.75-6.05 45.75-7.15L45.75-7.15Q45.75-8.75 44.35-9.33 42.95-9.9 40.45-10.45L40.45-10.45Q38.85-10.8 37.2-11.3 35.55-11.8 34.17-12.58 32.8-13.35 31.95-14.58 31.1-15.8 31.1-17.6L31.1-17.6Q31.1-20.9 33.72-23.15 36.35-25.4 41.1-25.4L41.1-25.4Q45.5-25.4 48.12-23.35 50.75-21.3 51.25-17.7L51.25-17.7 45.2-17.7Q44.65-20.45 41.05-20.45L41.05-20.45Q39.25-20.45 38.27-19.75 37.3-19.05 37.3-18L37.3-18Q37.3-16.9 38.75-16.25 40.2-15.6 42.6-15.05L42.6-15.05Q45.2-14.45 47.37-13.73 49.55-13 50.85-11.58 52.15-10.15 52.15-7.5L52.15-7.5Q52.2-5.2 50.95-3.35 49.7-1.5 47.35-0.45 45 0.6 41.8 0.6Z" opacity="1" transform="matrix(1,0,0,1,0,0)" fill="#000000" class="wordmark-text-0" data-fill-palette-color="primary" id="text-0"></path></svg></g></svg></g><g transform="matrix(1,0,0,1,0,187.66783680256628)"><svg viewBox="0 0 212.39328845252723 32.387841387904714" height="32.387841387904714" width="212.39328845252723"><g transform="matrix(1,0,0,1,0,0)"><svg width="212.39328845252723" viewBox="-0.7 -38.45 323.27 49.300000000000004" height="32.387841387904714" data-palette-color="#aab7c0"><path d="M-0.7-36.6L6.2-36.6 12-15.45Q12.4-13.9 12.68-12.3 12.95-10.7 13.15-9.1L13.15-9.1Q13.45-11.2 13.93-13.25 14.4-15.3 14.9-17.3L14.9-17.3 20.15-36.6 25.95-36.6 31.8-15.35Q32.2-13.85 32.43-12.28 32.65-10.7 32.85-9.1L32.85-9.1Q33.15-11.2 33.58-13.25 34-15.3 34.55-17.3L34.55-17.3 39.85-36.6 45.4-36.6 35.25 0.1 29.05 0.1 23.4-20.7Q23.05-22.1 22.8-23.5 22.55-24.9 22.4-26.3L22.4-26.3Q22.1-24.2 21.68-22.15 21.25-20.1 20.7-18.05L20.7-18.05 15.75 0.1 9.35 0.1-0.7-36.6ZM56.1-25.55L56.1-25.55Q59.55-25.55 61.77-24.05 64-22.55 65.07-20.18 66.15-17.8 66.15-15.1L66.15-15.1Q66.15-14.3 66.05-13.43 65.95-12.55 65.7-11.7L65.7-11.7 50.5-11.7Q50.5-7.7 52.4-5.58 54.3-3.45 57.35-3.45L57.35-3.45Q58.8-3.45 60.47-3.95 62.15-4.45 63.95-5.5L63.95-5.5 65.55-2.1Q63.85-0.75 61.27-0.1 58.7 0.55 56.65 0.55L56.65 0.55Q52.75 0.55 49.95-1.05 47.15-2.65 45.65-5.53 44.15-8.4 44.15-12.25L44.15-12.25Q44.15-14.9 44.95-17.28 45.75-19.65 47.3-21.53 48.85-23.4 51.07-24.48 53.3-25.55 56.1-25.55ZM55.85-21.45L55.85-21.45Q54.2-21.45 53.07-20.55 51.95-19.65 51.35-18.3 50.75-16.95 50.65-15.65L50.65-15.65 59.9-15.65Q60.15-17.1 59.75-18.43 59.35-19.75 58.35-20.6 57.35-21.45 55.85-21.45ZM83.9-25.4L83.9-25.4Q86.45-25.4 88.35-24.25 90.25-23.1 91.52-21.2 92.8-19.3 93.42-17.05 94.05-14.8 94.05-12.55L94.05-12.55Q94.05-9.05 92.67-6.05 91.3-3.05 88.67-1.23 86.05 0.6 82.3 0.6L82.3 0.6Q80 0.6 78.17-0.23 76.35-1.05 74.9-2.85L74.9-2.85 73.85 0.05 70.75 0.05Q70.85-0.8 70.9-1.63 70.95-2.45 70.95-3.25L70.95-3.25 70.95-35.65 70.25-38.4 76.95-38.4 76.95-26.3Q76.95-24.8 76.9-24.03 76.85-23.25 76.85-22.85L76.85-22.85Q78.45-24.2 80.15-24.8 81.85-25.4 83.9-25.4ZM81.85-20.8L81.85-20.8Q80.45-20.8 79.15-20.1 77.85-19.4 76.95-18.4L76.95-18.4 76.95-10.25Q76.95-8.6 77.42-7.05 77.9-5.5 79.05-4.5 80.2-3.5 82.15-3.5L82.15-3.5Q83.75-3.5 84.8-4.38 85.85-5.25 86.45-6.63 87.05-8 87.27-9.5 87.5-11 87.5-12.25L87.5-12.25Q87.5-13.5 87.2-14.98 86.9-16.45 86.25-17.78 85.6-19.1 84.52-19.95 83.45-20.8 81.85-20.8ZM140.94-18.25L140.94-18.25Q140.94-12.95 138.79-8.83 136.64-4.7 132.67-2.35 128.69 0 123.29 0L123.29 0 110.29 0 110.29-33.55Q110.29-33.6 110.12-34.3 109.94-35 109.74-35.75 109.54-36.5 109.49-36.6L109.49-36.6 123.34-36.6Q128.94-36.6 132.87-34.27 136.79-31.95 138.87-27.83 140.94-23.7 140.94-18.25ZM133.54-18.05L133.54-18.05Q133.54-20.6 132.97-23.03 132.39-25.45 131.12-27.4 129.84-29.35 127.82-30.5 125.79-31.65 122.89-31.65L122.89-31.65 117.19-31.65 117.19-4.95 122.99-4.95Q126.79-4.95 129.12-6.83 131.44-8.7 132.49-11.7 133.54-14.7 133.54-18.05ZM155.14-25.55L155.14-25.55Q158.59-25.55 160.81-24.05 163.04-22.55 164.11-20.18 165.19-17.8 165.19-15.1L165.19-15.1Q165.19-14.3 165.09-13.43 164.99-12.55 164.74-11.7L164.74-11.7 149.54-11.7Q149.54-7.7 151.44-5.58 153.34-3.45 156.39-3.45L156.39-3.45Q157.84-3.45 159.51-3.95 161.19-4.45 162.99-5.5L162.99-5.5 164.59-2.1Q162.89-0.75 160.31-0.1 157.74 0.55 155.69 0.55L155.69 0.55Q151.79 0.55 148.99-1.05 146.19-2.65 144.69-5.53 143.19-8.4 143.19-12.25L143.19-12.25Q143.19-14.9 143.99-17.28 144.79-19.65 146.34-21.53 147.89-23.4 150.11-24.48 152.34-25.55 155.14-25.55ZM154.89-21.45L154.89-21.45Q153.24-21.45 152.11-20.55 150.99-19.65 150.39-18.3 149.79-16.95 149.69-15.65L149.69-15.65 158.94-15.65Q159.19-17.1 158.79-18.43 158.39-19.75 157.39-20.6 156.39-21.45 154.89-21.45ZM166.49-24.85L172.94-24.85 177.49-11.75Q177.89-10.7 178.11-9.68 178.34-8.65 178.54-7.55L178.54-7.55Q178.74-8.6 178.89-9.68 179.04-10.75 179.39-11.75L179.39-11.75 184.04-24.85 189.44-24.85 180.64 0.2 175.24 0.2 166.49-24.85ZM201.68-25.55L201.68-25.55Q205.13-25.55 207.36-24.05 209.58-22.55 210.66-20.18 211.73-17.8 211.73-15.1L211.73-15.1Q211.73-14.3 211.63-13.43 211.53-12.55 211.28-11.7L211.28-11.7 196.08-11.7Q196.08-7.7 197.98-5.58 199.88-3.45 202.93-3.45L202.93-3.45Q204.38-3.45 206.06-3.95 207.73-4.45 209.53-5.5L209.53-5.5 211.13-2.1Q209.43-0.75 206.86-0.1 204.28 0.55 202.23 0.55L202.23 0.55Q198.33 0.55 195.53-1.05 192.73-2.65 191.23-5.53 189.73-8.4 189.73-12.25L189.73-12.25Q189.73-14.9 190.53-17.28 191.33-19.65 192.88-21.53 194.43-23.4 196.66-24.48 198.88-25.55 201.68-25.55ZM201.43-21.45L201.43-21.45Q199.78-21.45 198.66-20.55 197.53-19.65 196.93-18.3 196.33-16.95 196.23-15.65L196.23-15.65 205.48-15.65Q205.73-17.1 205.33-18.43 204.93-19.75 203.93-20.6 202.93-21.45 201.43-21.45ZM215.73-38.45L222.38-38.45 222.38 0 216.28 0 216.28-35.75 215.73-38.45ZM238.93 0.6L238.93 0.6Q235.18 0.6 232.5-1.13 229.83-2.85 228.4-5.78 226.98-8.7 226.98-12.3L226.98-12.3Q226.98-15.9 228.48-18.9 229.98-21.9 232.75-23.7 235.53-25.5 239.23-25.5L239.23-25.5Q243.03-25.5 245.68-23.78 248.33-22.05 249.75-19.13 251.18-16.2 251.18-12.6L251.18-12.6Q251.18-9 249.68-6 248.18-3 245.45-1.2 242.73 0.6 238.93 0.6ZM238.98-3.4L238.98-3.4Q240.73-3.4 241.83-4.28 242.93-5.15 243.53-6.53 244.13-7.9 244.35-9.47 244.58-11.05 244.58-12.4L244.58-12.4Q244.58-13.8 244.4-15.38 244.23-16.95 243.68-18.32 243.13-19.7 242.05-20.55 240.98-21.4 239.18-21.4L239.18-21.4Q237.48-21.4 236.38-20.5 235.28-19.6 234.68-18.2 234.08-16.8 233.83-15.25 233.58-13.7 233.58-12.4L233.58-12.4Q233.58-11.05 233.78-9.5 233.98-7.95 234.53-6.55 235.08-5.15 236.15-4.28 237.23-3.4 238.98-3.4ZM254.38-24.65L260.63-25.4Q260.88-24.7 261.08-23.93 261.28-23.15 261.38-22.4L261.38-22.4Q262.48-23.9 264.5-24.73 266.53-25.55 268.28-25.55L268.28-25.55Q270.98-25.55 272.98-24.48 274.98-23.4 276.3-21.55 277.63-19.7 278.3-17.4 278.98-15.1 278.98-12.7L278.98-12.7Q278.98-9.1 277.68-6.1 276.38-3.1 273.78-1.3 271.18 0.5 267.33 0.5L267.33 0.5Q266.08 0.5 264.45 0.1 262.83-0.3 261.78-1.1L261.78-1.1Q261.88-0.4 261.88 0.43 261.88 1.25 261.88 1.8L261.88 1.8 261.88 8.1 262.58 10.85 255.83 10.85 255.83-17.85Q255.83-18.8 255.7-20.08 255.58-21.35 255.25-22.6 254.93-23.85 254.38-24.65L254.38-24.65ZM266.63-21.1L266.63-21.1Q265.28-21.1 263.95-20.38 262.63-19.65 261.88-18.5L261.88-18.5 261.88-10.35Q261.88-8.7 262.3-7.18 262.73-5.65 263.8-4.7 264.88-3.75 266.83-3.75L266.83-3.75Q268.48-3.75 269.55-4.6 270.63-5.45 271.28-6.8 271.93-8.15 272.18-9.65 272.43-11.15 272.43-12.45L272.43-12.45Q272.43-13.8 272.15-15.3 271.88-16.8 271.2-18.13 270.53-19.45 269.4-20.28 268.28-21.1 266.63-21.1ZM293.52-25.55L293.52-25.55Q296.97-25.55 299.2-24.05 301.42-22.55 302.5-20.18 303.57-17.8 303.57-15.1L303.57-15.1Q303.57-14.3 303.47-13.43 303.37-12.55 303.12-11.7L303.12-11.7 287.92-11.7Q287.92-7.7 289.82-5.58 291.72-3.45 294.77-3.45L294.77-3.45Q296.22-3.45 297.9-3.95 299.57-4.45 301.37-5.5L301.37-5.5 302.97-2.1Q301.27-0.75 298.7-0.1 296.12 0.55 294.07 0.55L294.07 0.55Q290.17 0.55 287.37-1.05 284.57-2.65 283.07-5.53 281.57-8.4 281.57-12.25L281.57-12.25Q281.57-14.9 282.37-17.28 283.17-19.65 284.72-21.53 286.27-23.4 288.5-24.48 290.72-25.55 293.52-25.55ZM293.27-21.45L293.27-21.45Q291.62-21.45 290.5-20.55 289.37-19.65 288.77-18.3 288.17-16.95 288.07-15.65L288.07-15.65 297.32-15.65Q297.57-17.1 297.17-18.43 296.77-19.75 295.77-20.6 294.77-21.45 293.27-21.45ZM306.77-24.85L313.12-25.35Q314.22-22.85 314.32-20.1L314.32-20.1Q315.57-22.2 317.82-23.78 320.07-25.35 322.57-25.35L322.57-25.35 321.57-19.4Q319.37-19.4 317.65-18.28 315.92-17.15 314.37-14.8L314.37-14.8 314.37 0 308.37 0 308.37-18.15Q308.37-19.1 308.22-20.38 308.07-21.65 307.72-22.85 307.37-24.05 306.77-24.85L306.77-24.85Z" opacity="1" transform="matrix(1,0,0,1,0,0)" fill="#000000" class="slogan-text-1" data-fill-palette-color="secondary" id="text-1"></path></svg></g></svg></g></svg></g></svg></g></svg></g></svg></g></svg></g><path d="M302.065 41.215L302.065 0 54.865 0 54.865 247.2 302.065 247.2 302.065 205.985 292.559 205.985 292.559 237.695 64.37 237.695 64.37 9.505 292.559 9.505 292.559 41.215Z" fill="#000000" stroke="transparent" data-fill-palette-color="primary"></path></svg></g><defs></defs></svg><rect width="395.52" height="247.2" fill="none" stroke="none" visibility="hidden"></rect></g></svg></g></svg>